<svg width="47" height="50" viewBox="0 0 47 50" fill="none" xmlns="http://www.w3.org/2000/svg">
<path d="M1.5 1V0H0.5V1H1.5ZM45.5 1H46.5V0H45.5V1ZM45.5 49V50H46.5V49H45.5ZM1.5 49H0.5V50H1.5V49ZM5.625 19L5.06762 18.1697C4.70225 18.415 4.54017 18.8703 4.66838 19.2913C4.79658 19.7123 5.18493 20 5.625 20V19ZM41.375 19V20C41.8151 20 42.2034 19.7123 42.3316 19.2913C42.4598 18.8703 42.2978 18.415 41.9324 18.1697L41.375 19ZM23.5 7L24.0574 6.16974C23.7203 5.94342 23.2797 5.94342 22.9426 6.16974L23.5 7ZM12.125 19C12.125 18.4477 11.6773 18 11.125 18C10.5727 18 10.125 18.4477 10.125 19H12.125ZM10.125 34C10.125 34.5523 10.5727 35 11.125 35C11.6773 35 12.125 34.5523 12.125 34H10.125ZM20.375 19C20.375 18.4477 19.9273 18 19.375 18C18.8227 18 18.375 18.4477 18.375 19H20.375ZM18.375 34C18.375 34.5523 18.8227 35 19.375 35C19.9273 35 20.375 34.5523 20.375 34H18.375ZM28.625 19C28.625 18.4477 28.1773 18 27.625 18C27.0727 18 26.625 18.4477 26.625 19H28.625ZM26.625 34C26.625 34.5523 27.0727 35 27.625 35C28.1773 35 28.625 34.5523 28.625 34H26.625ZM36.875 19C36.875 18.4477 36.4273 18 35.875 18C35.3227 18 34.875 18.4477 34.875 19H36.875ZM34.875 34C34.875 34.5523 35.3227 35 35.875 35C36.4273 35 36.875 34.5523 36.875 34H34.875ZM7 33C6.44772 33 6 33.4477 6 34C6 34.5523 6.44772 35 7 35V33ZM40 35C40.5523 35 41 34.5523 41 34C41 33.4477 40.5523 33 40 33V35ZM4.25 39C3.69772 39 3.25 39.4477 3.25 40C3.25 40.5523 3.69772 41 4.25 41V39ZM42.75 41C43.3023 41 43.75 40.5523 43.75 40C43.75 39.4477 43.3023 39 42.75 39V41ZM1.5 2H45.5V0H1.5V2ZM44.5 1V49H46.5V1H44.5ZM45.5 48H1.5V50H45.5V48ZM2.5 49V1H0.5V49H2.5ZM5.625 20H41.375V18H5.625V20ZM41.9324 18.1697L24.0574 6.16974L22.9426 7.83026L40.8176 19.8303L41.9324 18.1697ZM22.9426 6.16974L5.06762 18.1697L6.18238 19.8303L24.0574 7.83026L22.9426 6.16974ZM10.125 19V34H12.125V19H10.125ZM18.375 19V34H20.375V19H18.375ZM26.625 19V34H28.625V19H26.625ZM34.875 19V34H36.875V19H34.875ZM7 35H40V33H7V35ZM4.25 41H42.75V39H4.25V41Z" fill="white"/>
</svg>
