<svg width="48" height="48" viewBox="0 0 48 48" fill="none" xmlns="http://www.w3.org/2000/svg">
<path d="M15 7.5H9C8.17157 7.5 7.5 8.17157 7.5 9V39C7.5 39.8284 8.17157 40.5 9 40.5H15C15.8284 40.5 16.5 39.8284 16.5 39V9C16.5 8.17157 15.8284 7.5 15 7.5Z" stroke="white" stroke-width="2" stroke-linecap="round" stroke-linejoin="round"/>
<path d="M7.5 15H16.5" stroke="white" stroke-width="2" stroke-linecap="round" stroke-linejoin="round"/>
<path d="M24 7.5H18C17.1716 7.5 16.5 8.17157 16.5 9V39C16.5 39.8284 17.1716 40.5 18 40.5H24C24.8284 40.5 25.5 39.8284 25.5 39V9C25.5 8.17157 24.8284 7.5 24 7.5Z" stroke="white" stroke-width="2" stroke-linecap="round" stroke-linejoin="round"/>
<path d="M16.5 33H25.5" stroke="white" stroke-width="2" stroke-linecap="round" stroke-linejoin="round"/>
<path d="M32.9127 7.00898L27.0927 8.56898C26.2891 8.78438 25.8123 9.61041 26.0277 10.414L33.8277 39.514C34.0431 40.3176 34.8691 40.7944 35.6727 40.579L41.4927 39.019C42.2963 38.8036 42.7731 37.9776 42.5577 37.174L34.7577 8.07398C34.5423 7.27041 33.7163 6.79359 32.9127 7.00898Z" stroke="white" stroke-width="2" stroke-linecap="round" stroke-linejoin="round"/>
<path d="M32.0996 33.6001L40.7996 31.2563" stroke="white" stroke-width="2" stroke-linecap="round" stroke-linejoin="round"/>
<path d="M27.4502 16.2L36.1502 13.875" stroke="white" stroke-width="2" stroke-linecap="round" stroke-linejoin="round"/>
</svg>
