<svg width="45" height="44" viewBox="0 0 45 44" fill="none" xmlns="http://www.w3.org/2000/svg">
<path d="M1.5 1V0H0.5V1H1.5ZM43.5 1H44.5V0H43.5V1ZM43.5 43V44H44.5V43H43.5ZM1.5 43H0.5V44H1.5V43ZM26.4375 6.25L27.1446 5.54289C26.9571 5.35536 26.7027 5.25 26.4375 5.25V6.25ZM26.4375 15.4375H25.4375C25.4375 15.9898 25.8852 16.4375 26.4375 16.4375V15.4375ZM35.625 15.4375H36.625C36.625 15.1723 36.5196 14.9179 36.3321 14.7304L35.625 15.4375ZM26.4884 21.2929C26.0978 20.9024 25.4647 20.9024 25.0741 21.2929C24.6836 21.6834 24.6836 22.3166 25.0741 22.7071L26.4884 21.2929ZM29.7188 25.9375L30.4259 26.6446C30.8164 26.2541 30.8164 25.6209 30.4259 25.2304L29.7188 25.9375ZM25.0741 29.1679C24.6836 29.5584 24.6836 30.1916 25.0741 30.5821C25.4647 30.9726 26.0978 30.9726 26.4884 30.5821L25.0741 29.1679ZM19.9259 22.7071C20.3164 22.3166 20.3164 21.6834 19.9259 21.2929C19.5353 20.9024 18.9022 20.9024 18.5116 21.2929L19.9259 22.7071ZM15.2812 25.9375L14.5741 25.2304C14.1836 25.6209 14.1836 26.2541 14.5741 26.6446L15.2812 25.9375ZM18.5116 30.5821C18.9022 30.9726 19.5353 30.9726 19.9259 30.5821C20.3164 30.1916 20.3164 29.5584 19.9259 29.1679L18.5116 30.5821ZM1.5 2H43.5V0H1.5V2ZM42.5 1V43H44.5V1H42.5ZM43.5 42H1.5V44H43.5V42ZM2.5 43V1H0.5V43H2.5ZM25.4375 6.25V15.4375H27.4375V6.25H25.4375ZM26.4375 16.4375H35.625V14.4375H26.4375V16.4375ZM25.0741 22.7071L29.0116 26.6446L30.4259 25.2304L26.4884 21.2929L25.0741 22.7071ZM29.0116 25.2304L25.0741 29.1679L26.4884 30.5821L30.4259 26.6446L29.0116 25.2304ZM18.5116 21.2929L14.5741 25.2304L15.9884 26.6446L19.9259 22.7071L18.5116 21.2929ZM14.5741 26.6446L18.5116 30.5821L19.9259 29.1679L15.9884 25.2304L14.5741 26.6446ZM34.3125 38.75C34.9258 38.75 35.514 38.5064 35.9477 38.0727L34.5335 36.6585C34.4749 36.7171 34.3954 36.75 34.3125 36.75V38.75ZM35.9477 38.0727C36.3814 37.639 36.625 37.0508 36.625 36.4375H34.625C34.625 36.5204 34.5921 36.5999 34.5335 36.6585L35.9477 38.0727ZM36.625 36.4375V15.4375H34.625V36.4375H36.625ZM36.3321 14.7304L27.1446 5.54289L25.7304 6.95711L34.9179 16.1446L36.3321 14.7304ZM26.4375 5.25H10.6875V7.25H26.4375V5.25ZM10.6875 5.25C10.0742 5.25 9.48599 5.49364 9.05232 5.92732L10.4665 7.34153C10.5251 7.28292 10.6046 7.25 10.6875 7.25V5.25ZM9.05232 5.92732C8.61864 6.36099 8.375 6.94919 8.375 7.5625H10.375C10.375 7.47962 10.4079 7.40013 10.4665 7.34153L9.05232 5.92732ZM8.375 7.5625V36.4375H10.375V7.5625H8.375ZM8.375 36.4375C8.375 37.0508 8.61864 37.639 9.05232 38.0727L10.4665 36.6585C10.4079 36.5999 10.375 36.5204 10.375 36.4375H8.375ZM9.05232 38.0727C9.48599 38.5064 10.0742 38.75 10.6875 38.75V36.75C10.6046 36.75 10.5251 36.7171 10.4665 36.6585L9.05232 38.0727ZM10.6875 38.75H34.3125V36.75H10.6875V38.75Z" fill="white"/>
</svg>
