<svg width="15" height="15" viewBox="0 0 15 15" fill="none" xmlns="http://www.w3.org/2000/svg">
<path d="M6.62885 0.867109C7.01136 0.188465 7.98864 0.188463 8.37115 0.867108L9.97321 3.70944C10.1159 3.96261 10.3617 4.14119 10.6466 4.19867L13.8448 4.84398C14.6085 4.99806 14.9105 5.92751 14.3833 6.50101L12.1751 8.90298C11.9784 9.11694 11.8845 9.40587 11.9179 9.69457L12.2925 12.9357C12.3819 13.7096 11.5913 14.284 10.8829 13.9598L7.91616 12.602C7.6519 12.4811 7.3481 12.4811 7.08384 12.602L4.11707 13.9598C3.40871 14.284 2.61808 13.7096 2.70752 12.9357L3.08211 9.69458C3.11547 9.40587 3.02159 9.11694 2.8249 8.90299L0.616749 6.50101C0.0895224 5.92751 0.391516 4.99806 1.15515 4.84398L4.35343 4.19867C4.63831 4.14119 4.88409 3.96262 5.02679 3.70944L6.62885 0.867109Z" fill="#FFB342"/>
</svg>
